<?xml version="1.0" encoding="UTF-8"?> <svg xmlns="http://www.w3.org/2000/svg" viewBox="0 0 100 100"><path d="M87.9,12.921H12.1a2.717,2.717,0,0,0-2.716,2.716V73.716H90.613V15.637A2.717,2.717,0,0,0,87.9,12.921" fill="#5d6169"></path><path d="M82.172,19.074H17.827a2.039,2.039,0,0,0-2.04,2.039V66.43a2.04,2.04,0,0,0,2.04,2.041H82.172a2.039,2.039,0,0,0,2.04-2.041V21.113a2.039,2.039,0,0,0-2.04-2.039" fill="#353944"></path><path d="M36.228,38.093a3.448,3.448,0,0,1-1.851,3.057L29.684,43.6a.432.432,0,0,0,0,.768l4.693,2.466a3.455,3.455,0,0,1,1.448,4.658l-.233.44a.426.426,0,0,1-.38.23A.448.448,0,0,1,35,52.1L23.631,45.6a.419.419,0,0,1-.225-.371V42.737a.435.435,0,0,1,.225-.379L35,35.854a.435.435,0,0,1,.212-.056.424.424,0,0,1,.383.238l.243.465a3.437,3.437,0,0,1,.393,1.592" fill="#bfda33"></path><path d="M56.062,30.325h2.082a.434.434,0,0,1,.414.432.415.415,0,0,1-.045.189L46.991,54.38a3.443,3.443,0,0,1-3.1,1.932H41.768a.432.432,0,0,1-.431-.432.42.42,0,0,1,.048-.2L52.968,32.248a3.446,3.446,0,0,1,3.094-1.923" fill="#bfda33"></path><path d="M64.716,35.8a.427.427,0,0,1,.211.054l11.367,6.5a.448.448,0,0,1,.216.38V45.23a.426.426,0,0,1-.216.37L64.927,52.1a.443.443,0,0,1-.214.056.431.431,0,0,1-.382-.23l-.232-.455a3.443,3.443,0,0,1,1.449-4.633l4.7-2.475a.44.44,0,0,0,0-.768l-4.692-2.458a3.457,3.457,0,0,1-1.476-4.632l.25-.474a.431.431,0,0,1,.385-.235" fill="#bfda33"></path><path d="M36.34,76.805H63.659a2.813,2.813,0,0,0,2.814-2.814v-.275H33.527v.275A2.813,2.813,0,0,0,36.34,76.805Z" fill="#fff"></path><path d="M69.674,73.716h-3.2v.275a2.813,2.813,0,0,1-2.814,2.814H36.34a2.813,2.813,0,0,1-2.813-2.814v-.275H0v5.549a7.55,7.55,0,0,0,7.55,7.55h84.9A7.55,7.55,0,0,0,100,79.265V73.716Z" fill="#353944"></path></svg> 